#!OML:ASF X:\für Bonn\!DataBase\2005_08_10_Bjorn_Final\c3d\bjorn.ASF
:FULLY-SPECIFIED
:DEGREES
658
root -1.35561 1.50922 21.391 -442.897 -171.888 11.7227
lowerback -8.43907 -0.964462 -8.89672
upperback 1.44474 -0.277253 -4.9483
thorax 6.30254 -0.461784 -0.275748
lowerneck -16.1957 -6.33319 -2.61592
upperneck 5.57023 -8.76082 5.64547
head 4.64133 -4.14507 1.39223
rclavicle 9.70069e-014 -1.78906e-015
rhumerus -224.781 -208.947 107.176
rradius 73.8316
rwrist -1.85984
rhand -15.765 14.7816
rfingers 7.12502
rthumb 10.4269 -14.9399
lclavicle 9.70069e-014 -1.78906e-015
lhumerus -389.472 -51.983 -295.791
lradius 55.9748
lwrist -18.6865
lhand -42.2256 -22.2131
lfingers 7.12502
lthumb -15.1125 7.21519
rfemur -197.802 -155.986 185.577
rtibia 32.7786
rfoot 9.66664 -5.69239
rtoes 12.4824
lfemur -16.3271 -3.66038 -26.5379
ltibia 21.8851
lfoot 20.462 -13.9779
ltoes -14.2414
659
root -1.35796 1.50688 21.3949 -442.895 -171.965 11.6742
lowerback -8.43355 -0.952525 -8.79676
upperback 1.44706 -0.271122 -4.9268
thorax 6.30053 -0.454523 -0.306947
lowerneck -16.2624 -6.34627 -2.63127
upperneck 5.64198 -8.77562 5.63923
head 4.67514 -4.15009 1.38816
rclavicle 1.43125e-014 2.04748e-014
rhumerus -224.674 -208.813 107.082
rradius 72.3769
rwrist -1.61628
rhand -15.4257 14.7214
rfingers 7.12502
rthumb 10.7541 -14.9834
lclavicle 1.43125e-014 2.04748e-014
lhumerus -389.547 -51.9912 -295.705
lradius 55.1488
lwrist -18.9177
lhand -41.9961 -22.0238
lfingers 7.12502
lthumb -14.8914 7.42101
rfemur -197.765 -155.953 185.648
rtibia 32.6869
rfoot 9.67812 -5.78473
rtoes 12.6831
lfemur -16.2372 -2.9358 -26.5037
ltibia 21.8269
lfoot 20.831 -14.4897
ltoes -13.6319
660
root -1.35944 1.50561 21.3975 -442.887 -172.025 11.6131
lowerback -8.43575 -0.933088 -8.71295
upperback 1.44429 -0.253863 -4.92931
thorax 6.29683 -0.442826 -0.353246
lowerneck -16.2532 -6.3387 -2.57687
upperneck 5.60599 -8.77577 5.626
head 4.65951 -4.1514 1.37654
rclavicle 1.11319e-014 -5.60573e-014
rhumerus -224.581 -208.633 106.96
rradius 70.8963
rwrist -1.39569
rhand -15.075 14.6479
rfingers 7.12502
rthumb 11.0924 -15.039
lclavicle 1.11319e-014 -5.60573e-014
lhumerus -389.651 -52.0378 -295.626
lradius 54.3282
lwrist -19.0919
lhand -41.7703 -21.9365
lfingers 7.12502
lthumb -14.6739 7.52424
rfemur -197.73 -156.027 185.703
rtibia 32.599
rfoot 9.60517 -5.93341
rtoes 12.8548
lfemur -16.1812 -2.1281 -26.4884
ltibia 21.7871
lfoot 21.0326 -15.0265
ltoes -13.5178
661
root -1.36254 1.50389 21.4014 -442.882 -172.083 11.5516
lowerback -8.44925 -0.926438 -8.62976
upperback 1.46496 -0.248867 -4.91244
thorax 6.32568 -0.437981 -0.381311
lowerneck -16.3485 -6.33386 -2.56852
upperneck 5.63278 -8.76903 5.6117
head 4.68154 -4.14651 1.36835
rclavicle 3.81667e-014 -7.95139e-016
rhumerus -224.42 -208.506 106.91
rradius 69.4017
rwrist -1.23078
rhand -14.7578 14.6365
rfingers 7.12502
rthumb 11.3983 -15.0337
lclavicle 3.81667e-014 -7.95139e-016
lhumerus -389.709 -51.9862 -295.541
lradius 53.4711
lwrist -19.2443
lhand -41.5304 -21.9574
lfingers 7.12502
lthumb -14.4427 7.52002
rfemur -197.696 -156.061 185.749
rtibia 32.5168
rfoot 9.57319 -6.05901
rtoes 12.8796
lfemur -16.1465 -1.37252 -26.472
ltibia 21.7683
lfoot 21.1092 -15.4766
ltoes -13.7443
